<svg width="122" height="41" viewBox="0 0 122 41" fill="none" xmlns="http://www.w3.org/2000/svg">
<g clip-path="url(#clip0_2342_366)">
<mask id="mask0_2342_366" style="mask-type:luminance" maskUnits="userSpaceOnUse" x="0" y="36" width="123" height="6">
<path d="M122.023 36.9268H0.455811V41.1438H122.023V36.9268Z" fill="white"/>
</mask>
<g mask="url(#mask0_2342_366)">
<path d="M121.311 37.6377H1.16846V40.4301H121.311V37.6377Z" fill="#E30613"/>
</g>
<path d="M15.9207 26.5748C15.9207 27.4438 15.7498 28.2986 15.4007 29.1392C15.0517 29.9797 14.5388 30.7277 13.8478 31.3902C13.1568 32.0526 12.3092 32.5726 11.3048 32.9644C10.3004 33.3562 9.13927 33.5485 7.82145 33.5485C7.0735 33.5485 6.36116 33.4631 5.68444 33.2992C5.00772 33.1354 4.41648 32.8647 3.91073 32.4872C3.40497 32.1096 2.99894 31.6324 2.69975 31.0482C2.40057 30.4641 2.25098 29.766 2.25098 28.954C2.25098 27.8427 2.42907 26.9666 2.79236 26.3255C3.15565 25.6844 3.65428 25.1715 4.29539 24.7939C4.94361 24.4235 5.70581 24.16 6.58911 24.0104C7.47241 23.8608 8.42694 23.7254 9.44558 23.6043C10.6423 23.4547 11.8248 23.2909 12.9788 23.1128C14.1327 22.9347 15.1158 22.6355 15.9278 22.2153V26.5748H15.9207ZM18.1218 31.5184V18.3402C18.1218 15.9467 17.4309 14.1374 16.0489 12.9193C14.667 11.7083 12.7081 11.0957 10.1579 11.0957C7.42967 11.0957 5.32827 11.7154 3.83949 12.962C2.35071 14.2086 1.46029 15.9538 1.16111 18.2048H3.36223C3.60442 16.4952 4.27402 15.1988 5.38526 14.3155C6.49651 13.4322 8.08502 12.9905 10.1508 12.9905C12.01 12.9905 13.4347 13.4179 14.4248 14.2727C15.415 15.1275 15.9065 16.4382 15.9065 18.2048V18.8317C15.9065 19.373 15.8067 19.8076 15.6144 20.1352C15.4221 20.4629 15.073 20.7265 14.5815 20.9259C14.09 21.1183 13.4062 21.2821 12.5371 21.4175C11.6681 21.5528 10.5426 21.681 9.16777 21.8021C7.93542 21.9232 6.77432 22.1013 5.68444 22.3435C4.58745 22.5857 3.61867 22.949 2.76386 23.4476C1.90906 23.9462 1.23234 24.623 0.74083 25.492C0.242194 26.3611 0 27.4866 0 28.8685C0 29.9512 0.192331 30.8915 0.584116 31.7036C0.975901 32.5085 1.51015 33.1924 2.20112 33.748C2.89208 34.3036 3.6899 34.7239 4.60881 35.0088C5.52773 35.2938 6.51788 35.4362 7.60063 35.4362C8.79735 35.4362 9.84449 35.3009 10.7278 35.0302C11.6111 34.7595 12.3733 34.4247 13.0215 34.0187C13.6626 33.6127 14.2111 33.1639 14.6599 32.6652C15.1087 32.1737 15.5004 31.7036 15.8281 31.2477H15.9635V31.7891C15.9635 32.537 15.9991 33.1568 16.0774 33.6554C16.1487 34.154 16.2911 34.5458 16.5048 34.845H18.8413V34.7096C18.6632 34.5601 18.4922 34.2466 18.3427 33.7622C18.1931 33.285 18.1218 32.537 18.1218 31.5113" fill="#004899"/>
<path d="M24.5533 0.625H21.7681V34.8456H24.5533V0.625Z" fill="#004899"/>
<path d="M43.1254 25.8975C43.1254 26.8307 42.9758 27.6855 42.698 28.4619C42.4131 29.2455 42.0071 29.9222 41.4799 30.5063C40.9599 31.0904 40.3188 31.5463 39.5709 31.874C38.8229 32.2017 37.9824 32.3726 37.0492 32.3726C35.3966 32.3726 34.1144 31.9595 33.2026 31.1332C32.2837 30.3069 31.8278 29.1315 31.8278 27.6V11.9072H28.1877V27.6926C28.1877 30.1217 28.893 32.0094 30.3034 33.3557C31.7138 34.702 33.6157 35.3787 36.0163 35.3787C37.7259 35.3787 39.115 35.0439 40.1764 34.3672C41.2377 33.6905 42.1923 32.7858 43.0328 31.6461H43.1254V34.8373H46.7655V11.9144H43.1254V25.8975Z" fill="#004899"/>
<path d="M107.058 13.5962C106.367 12.834 105.526 12.2285 104.536 11.794C103.546 11.3595 102.428 11.1387 101.167 11.1387C99.55 11.1387 98.1752 11.4592 97.0497 12.1074C95.9242 12.7557 94.9269 13.7031 94.0579 14.9639H93.9225V11.908H86.8633V34.8452H94.1932V22.1158C94.1932 20.6769 94.5565 19.5086 95.2902 18.6111C96.0239 17.7135 97.0069 17.2648 98.2322 17.2648C99.4574 17.2648 100.334 17.6423 100.932 18.3903C101.53 19.1382 101.829 20.1284 101.829 21.3607V34.8523H109.159V19.879C109.159 18.5897 108.981 17.4144 108.618 16.3458C108.255 15.2845 107.735 14.3656 107.044 13.6034" fill="#004899"/>
<path d="M121.311 11.916H112.813V34.8532H121.311V11.916Z" fill="#004899"/>
<path d="M75.6867 11.1455C74.2264 11.1455 72.9157 11.5088 71.7404 12.2283C70.565 12.9477 69.5891 13.9379 68.8198 15.1987H68.7343C68.1645 13.9664 67.331 12.9905 66.234 12.2568C65.137 11.523 63.8548 11.1526 62.4017 11.1526C60.7918 11.1526 59.4455 11.5159 58.3413 12.2354C57.2443 12.9548 56.3824 13.8381 55.7556 14.8924H55.6202V11.922H50.4202V34.8592H55.6202V21.0612C55.6202 19.3516 56.0405 17.9839 56.8811 16.9582C57.7216 15.9324 58.84 15.4195 60.2504 15.4195C61.5255 15.4195 62.5085 15.7899 63.1924 16.5236C63.8762 17.2645 64.2252 18.3686 64.2252 19.8431V34.8521H69.4253V21.0541C69.4253 19.3445 69.8456 17.9768 70.679 16.951C71.5196 15.9253 72.6451 15.4124 74.0555 15.4124C75.3306 15.4124 76.3136 15.7828 76.9974 16.5165C77.6884 17.2574 78.0303 18.3615 78.0303 19.836V34.8449H83.2304V19.3303C83.2304 16.7801 82.575 14.7784 81.2643 13.3253C79.9536 11.8721 78.0944 11.1455 75.6867 11.1455Z" fill="#004899"/>
<path d="M117.058 9.88419C119.821 9.88419 122.072 7.64033 122.072 4.86934C122.072 2.09835 119.829 -0.145508 117.058 -0.145508C114.287 -0.145508 112.043 2.09835 112.043 4.86934C112.043 7.64033 114.287 9.88419 117.058 9.88419Z" fill="#004899"/>
</g>
<defs>
<clipPath id="clip0_2342_366">
<rect width="122" height="41" fill="white"/>
</clipPath>
</defs>
</svg>
