<svg width="28" height="28" viewBox="0 0 28 28" fill="none" xmlns="http://www.w3.org/2000/svg">
<path d="M14.0005 3.81836C11.2353 3.81836 10.8883 3.83045 9.8023 3.87987C8.71839 3.92951 7.97853 4.10112 7.33116 4.3529C6.66151 4.61297 6.09347 4.96084 5.52755 5.527C4.9612 6.09294 4.61333 6.661 4.35243 7.33045C4.10002 7.97806 3.9282 8.71815 3.87942 9.80166C3.83084 10.8877 3.81812 11.235 3.81812 14.0002C3.81812 16.7654 3.83042 17.1114 3.87963 18.1974C3.92948 19.2814 4.10108 20.0212 4.35264 20.6686C4.61291 21.3383 4.96078 21.9064 5.52691 22.4723C6.09262 23.0387 6.66067 23.3874 7.32989 23.6475C7.97769 23.8992 8.71775 24.0708 9.80145 24.1205C10.8875 24.1699 11.2343 24.182 13.9992 24.182C16.7645 24.182 17.1105 24.1699 18.1965 24.1205C19.2804 24.0708 20.0211 23.8992 20.6689 23.6475C21.3384 23.3874 21.9056 23.0387 22.4713 22.4723C23.0376 21.9064 23.3855 21.3383 23.6464 20.6688C23.8967 20.0212 24.0685 19.2811 24.1194 18.1976C24.1682 17.1116 24.1809 16.7654 24.1809 14.0002C24.1809 11.235 24.1682 10.8879 24.1194 9.80187C24.0685 8.71793 23.8967 7.97806 23.6464 7.33066C23.3855 6.661 23.0376 6.09294 22.4713 5.527C21.9049 4.96063 21.3386 4.61275 20.6683 4.3529C20.0192 4.10112 19.279 3.92951 18.195 3.87987C17.109 3.83045 16.7633 3.81836 13.9973 3.81836H14.0005ZM13.0871 5.65321C13.3582 5.65278 13.6607 5.65321 14.0005 5.65321C16.7189 5.65321 17.0411 5.66297 18.1147 5.71175C19.1074 5.75715 19.6461 5.92303 20.005 6.06239C20.4802 6.24694 20.8189 6.46754 21.175 6.8239C21.5314 7.18027 21.752 7.51966 21.937 7.99481C22.0763 8.3533 22.2424 8.89209 22.2876 9.88481C22.3364 10.9581 22.347 11.2806 22.347 13.9978C22.347 16.7151 22.3364 17.0375 22.2876 18.1109C22.2422 19.1036 22.0763 19.6424 21.937 20.0009C21.7524 20.476 21.5314 20.8144 21.175 21.1705C20.8187 21.5269 20.4804 21.7475 20.005 21.932C19.6465 22.072 19.1074 22.2375 18.1147 22.2829C17.0414 22.3317 16.7189 22.3423 14.0005 22.3423C11.2818 22.3423 10.9596 22.3317 9.8863 22.2829C8.8936 22.2371 8.35483 22.0712 7.99572 21.9318C7.52058 21.7473 7.1812 21.5267 6.82484 21.1703C6.46849 20.8139 6.24789 20.4754 6.06293 20C5.92357 19.6415 5.75748 19.1028 5.7123 18.11C5.66351 17.0367 5.65376 16.7143 5.65376 13.9953C5.65376 11.2763 5.66351 10.9556 5.7123 9.88227C5.75769 8.88954 5.92357 8.35075 6.06293 7.99184C6.24747 7.51669 6.46849 7.1773 6.82484 6.82093C7.1812 6.46457 7.52058 6.24397 7.99572 6.059C8.35461 5.919 8.8936 5.75354 9.8863 5.70794C10.8255 5.66551 11.1895 5.65278 13.0871 5.65066V5.65321ZM19.4353 7.34381C18.7608 7.34381 18.2135 7.89045 18.2135 8.56521C18.2135 9.23975 18.7608 9.78703 19.4353 9.78703C20.1098 9.78703 20.6571 9.23975 20.6571 8.56521C20.6571 7.89066 20.1098 7.34339 19.4353 7.34339V7.34381ZM14.0005 8.77139C11.113 8.77139 8.77184 11.1126 8.77184 14.0002C8.77184 16.8878 11.113 19.2279 14.0005 19.2279C16.888 19.2279 19.2283 16.8878 19.2283 14.0002C19.2283 11.1126 16.8878 8.77139 14.0003 8.77139H14.0005ZM14.0005 10.6062C15.8747 10.6062 17.3943 12.1257 17.3943 14.0002C17.3943 15.8745 15.8747 17.3941 14.0005 17.3941C12.126 17.3941 10.6066 15.8745 10.6066 14.0002C10.6066 12.1257 12.126 10.6062 14.0005 10.6062V10.6062Z" fill="#004899"/>
</svg>
